Coordinates
version=1
nRows=22
nColumns=24
inDegrees=yes

Units are S.I. units (second, meters, Newtons, ...)
Angles are in degrees.

endheader
time	pelvis_tilt	pelvis_list	pelvis_rotation	pelvis_tx	pelvis_ty	pelvis_tz	hip_flexion_r	hip_adduction_r	hip_rotation_r	knee_angle_r	ankle_angle_r	subtalar_angle_r	mtp_angle_r	hip_flexion_l	hip_adduction_l	hip_rotation_l	knee_angle_l	ankle_angle_l	subtalar_angle_l	mtp_angle_l	lumbar_extension	lumbar_bending	lumbar_rotation
      8.38000000	     62.52080683	      6.13291100	     -0.69429511	      0.55832093	      0.99796245	     -0.28688620	     -7.13606813	    -14.36267265	     12.81689903	    -44.54432359	    -28.88326635	     18.59058250	   -263.16845423	     -4.04588648	     -6.17257207	      2.51932218	    -54.97806534	     -2.57479003	      9.66314511	    -29.80894323	      0.00000000	      0.00000000	      0.00000000
      8.39000000	     62.54118070	      6.13678750	     -0.68596404	      0.55831083	      0.99795606	     -0.28686715	     -7.15932376	    -14.38456534	     12.80051794	    -44.65854230	    -28.84390422	     18.49702242	   -262.99435013	     -4.05253549	     -6.17170205	      2.51959563	    -54.96052029	     -2.59658995	      9.59313796	    -29.93498079	      0.00000000	      0.00000000	      0.00000000
      8.40000000	     62.56265078	      6.14269327	     -0.67631758	      0.55827176	      0.99793103	     -0.28681277	     -7.18282810	    -14.40939927	     12.78325440	    -44.77823360	    -28.80459668	     18.41732981	   -262.84178376	     -4.06910414	     -6.16749033	      2.52135143	    -54.94607664	     -2.60706999	      9.52211133	    -30.03923819	      0.00000000	      0.00000000	      0.00000000
      8.41000000	     62.58202228	      6.14993983	     -0.66718840	      0.55822453	      0.99791242	     -0.28675189	     -7.20299835	    -14.43627901	     12.76970787	    -44.90118185	    -28.76514514	     18.35279044	   -262.71530722	     -4.08924772	     -6.15940997	      2.52480651	    -54.93765554	     -2.60412286	      9.45622482	    -30.10955171	      0.00000000	      0.00000000	      0.00000000
      8.42000000	     62.59662866	      6.15692672	     -0.66085929	      0.55819983	      0.99790666	     -0.28672171	     -7.21710358	    -14.46419206	     12.76372845	    -45.02512926	    -28.72595068	     18.30308870	   -262.61638847	     -4.10317355	     -6.14785432	      2.52943850	    -54.93619955	     -2.58915459	      9.40159942	    -30.13685747	      0.00000000	      0.00000000	      0.00000000
      8.43000000	     62.60306142	      6.16168196	     -0.65853989	      0.55819779	      0.99789726	     -0.28672343	     -7.22262632	    -14.49213268	     12.76739037	    -45.14792040	    -28.68754330	     18.26623887	   -262.54350553	     -4.10312918	     -6.13334464	      2.53453965	    -54.94292701	     -2.56617007	      9.36307050	    -30.11653694	      0.00000000	      0.00000000	      0.00000000
      8.44000000	     62.59839505	      6.16326980	     -0.66017464	      0.55820132	      0.99788503	     -0.28673863	     -7.21728204	    -14.51943455	     12.78069836	    -45.26807166	    -28.65016781	     18.23860659	   -262.49256337	     -4.08568698	     -6.11685899	      2.54016340	    -54.95987375	     -2.53993414	      9.34306673	    -30.04908931	      0.00000000	      0.00000000	      0.00000000
      8.45000000	     62.58180747	      6.16249257	     -0.66490240	      0.55820210	      0.99788653	     -0.28676018	     -7.20016108	    -14.54586319	     12.80178749	    -45.38550759	    -28.61378673	     18.21529006	   -262.45761642	     -4.05118005	     -6.09987520	      2.54726564	    -54.98867633	     -2.51403699	      9.34096517	    -29.94015664	      0.00000000	      0.00000000	      0.00000000
      8.46000000	     62.55519444	      6.16131926	     -0.67119423	      0.55820496	      0.99789898	     -0.28679040	     -7.17251663	    -14.57136384	     12.82740400	    -45.50153526	    -28.57852699	     18.19099703	   -262.43181591	     -4.00244038	     -6.08347982	      2.55688301	    -55.02923670	     -2.48971888	      9.35313422	    -29.79998620	      0.00000000	      0.00000000	      0.00000000
      8.47000000	     62.52257787	      6.16151846	     -0.67690744	      0.55821216	      0.99790142	     -0.28682570	     -7.13742956	    -14.59604547	     12.85364552	    -45.61793948	    -28.54536351	     18.16128471	   -262.40842928	     -3.94379936	     -6.06743888	      2.56928199	    -55.07944778	     -2.46597398	      9.37369663	    -29.64240003	      0.00000000	      0.00000000	      0.00000000
      8.48000000	     62.48869996	      6.16379912	     -0.67988267	      0.55821602	      0.99788560	     -0.28685653	     -7.09884316	    -14.62043174	     12.87684014	    -45.73570090	    -28.51663515	     18.12378275	   -262.38174046	     -3.88024821	     -6.05021294	      2.58392536	    -55.13605214	     -2.44082684	      9.39585930	    -29.48333390	      0.00000000	      0.00000000	      0.00000000
      8.49000000	     62.45756460	      6.16819638	     -0.67895993	      0.55821027	      0.99786027	     -0.28687512	     -7.06076494	    -14.64557340	     12.89430530	    -45.85406769	    -28.49592645	     18.07886355	   -262.34761967	     -3.81643114	     -6.02992435	      2.60024593	    -55.19587575	     -2.41304465	      9.41347530	    -29.33903705	      0.00000000	      0.00000000	      0.00000000
      8.50000000	     62.43158164	      6.17490408	     -0.67465663	      0.55819614	      0.99783174	     -0.28688235	     -7.02693247	    -14.67290685	     12.90476815	    -45.97061881	    -28.48710551	     18.02935227	   -262.30362915	     -3.75551800	     -6.00540376	      2.61853545	    -55.25664015	     -2.38332270	      9.42239393	    -29.22408528	      0.00000000	      0.00000000	      0.00000000
      8.51000000	     62.41178656	      6.18451372	     -0.66866433	      0.55817551	      0.99780112	     -0.28688943	     -7.00025711	    -14.70375204	     12.90837691	    -46.08206215	    -28.49276639	     17.97934854	   -262.24873665	     -3.69865869	     -5.97634340	      2.64023147	    -55.31722146	     -2.35433776	      9.42120815	    -29.14943272	      0.00000000	      0.00000000	      0.00000000
      8.52000000	     62.39856615	      6.19751953	     -0.66217404	      0.55814882	      0.99777126	     -0.28690639	     -6.98194042	    -14.73852419	     12.90640358	    -46.18523340	    -28.51280134	     17.93273743	   -262.18288906	     -3.64559782	     -5.94253643	      2.66739068	    -55.37760814	     -2.32969547	      9.41120792	    -29.12078351	      0.00000000	      0.00000000	      0.00000000
      8.53000000	     62.39187070	      6.21377652	     -0.65449064	      0.55812123	      0.99774600	     -0.28693191	     -6.97146931	    -14.77635701	     12.90087396	    -46.27828528	    -28.54390667	     17.89204718	   -262.10670181	     -3.59565773	     -5.90345030	      2.70186472	    -55.43860366	     -2.31232645	      9.39562095	    -29.13758074	      0.00000000	      0.00000000	      0.00000000
      8.54000000	     62.39084956	      6.23269313	     -0.64353399	      0.55810108	      0.99772918	     -0.28696226	     -6.96820658	    -14.81560536	     12.89423516	    -46.36191710	    -28.58036790	     17.85797485	   -262.02137838	     -3.54771771	     -5.85906018	      2.74487297	    -55.50123625	     -2.30309707	      9.37845116	    -29.19286260	      0.00000000	      0.00000000	      0.00000000
      8.55000000	     62.39364238	      6.25393575	     -0.62768683	      0.55808525	      0.99771811	     -0.28699574	     -6.97304122	    -14.85464895	     12.88887319	    -46.43966060	    -28.61586999	     17.82956005	   -261.92882493	     -3.49958558	     -5.81090389	      2.79690777	    -55.56625151	     -2.30020408	      9.36329339	    -29.27411015	      0.00000000	      0.00000000	      0.00000000
      8.56000000	     62.39840313	      6.27786852	     -0.60682999	      0.55805793	      0.99770161	     -0.28702289	     -6.98720039	    -14.89205265	     12.88627877	    -46.51622878	    -28.64560629	     17.80482090	   -261.83182028	     -3.44860654	     -5.76182920	      2.85743576	    -55.63417761	     -2.29952678	      9.35242254	    -29.36502620	      0.00000000	      0.00000000	      0.00000000
      8.57000000	     62.40480054	      6.30500449	     -0.58185949	      0.55801433	      0.99767416	     -0.28702838	     -7.00887370	    -14.92619938	     12.88620748	    -46.59493878	    -28.66775685	     17.78160873	   -261.73406356	     -3.39365708	     -5.71439643	      2.92434318	    -55.70567310	     -2.29576394	      9.34636552	    -29.44800083	      0.00000000	      0.00000000	      0.00000000
      8.58000000	     62.41335197	      6.33435079	     -0.55407730	      0.55796629	      0.99763960	     -0.28700370	     -7.03241694	    -14.95561534	     12.88669879	    -46.67659169	    -28.68362886	     17.75840571	   -261.63996468	     -3.33629724	     -5.66935849	      2.99376451	    -55.78142865	     -2.28397725	      9.34408619	    -29.50688722	      0.00000000	      0.00000000	      0.00000000
      8.59000000	     62.42336680	      6.36266692	     -0.52529083	      0.55792006	      0.99760259	     -0.28696086	     -7.05122635	    -14.97994088	     12.88520162	    -46.76006373	    -28.69638489	     17.73480548	   -261.55413653	     -3.27962402	     -5.62580825	      3.06091306	    -55.86155056	     -2.26108785	      9.34372738	    -29.52962965	      0.00000000	      0.00000000	      0.00000000
